{"title":"10 Rules For Sleeping Around 2013 HDRIP XVID AC3 ACAB","uid":10141825,"size":1492564940,"categoryP":"video","categoryS":"movies","magnet":"?xt=urn:btih:730a4511998bbcc68409c2e62626766da2563db9&amp;dn=10+Rules+For+Sleeping+Around+2013+HDRIP+XVID+AC3+ACAB&amp;tr=udp%3A%2F%2Ftracker.openbittorrent.com%3A80&amp;tr=udp%3A%2F%2Fopen.demonii.com%3A1337&amp;tr=udp%3A%2F%2Ftracker.coppersurfer.tk%3A6969&amp;tr=udp%3A%2F%2Fexodus.desync.com%3A6969","seeders":1,"leechers":5,"uploader":".BONE.","files":3,"time":1400011132,"description":"Format : AVI\nFormat/Info : Audio Video Interleave\nFile size : 1.35 GiB\nDuration : 1h 34mn\nOverall bit rate : 2 047 Kbps\n\nVideo\nID : 0\nFormat : MPEG-4 Visual\nFormat profile : Advanced Simple@L5\nFormat settings, BVOP : 2\nFormat settings, QPel : No\nFormat settings, GMC : No warppoints\nFormat settings, Matrix : Default (H.263)\nMuxing mode : Packed bitstream\nCodec ID : XVID\nCodec ID/Hint : XviD\nDuration : 1h 34mn\nBit rate : 1 848 Kbps\nWidth : 720 pixels\nHeight : 400 pixels\nDisplay aspect ratio : 16:9\nFrame rate : 23.976 fps\nColor space : YUV\nChroma subsampling : 4:2:0\nBit depth : 8 bits\nScan type : Progressive\nCompression mode : Lossy\nBits/(Pixel*Frame) : 0.268\nStream size : 1.22 GiB (90%)\nWriting library : XviD 1.2.1 (UTC 2008-12-04)\n\nAudio\nID : 1\nFormat : AC-3\nFormat/Info : Audio Coding 3\nMode extension : CM (complete main)\nFormat settings, Endianness : Big\nCodec ID : 2000\nDuration : 1h 34mn\nBit rate mode : Constant\nBit rate : 192 Kbps\nChannel(s) : 6 channels\nChannel positions : Front: L C R, Side: L R, LFE\nSampling rate : 48.0 KHz\nBit depth : 16 bits\nCompression mode : Lossy\nStream size : 129 MiB (9%)\nAlignment : Aligned on interleaves\nInterleave, duration : 64 ms (1.53 video frames)\nInterleave, preload duration : 192 ms\nTitle : English","torrent":{"xt":"urn:btih:730a4511998bbcc68409c2e62626766da2563db9","amp;dn":"10+Rules+For+Sleeping+Around+2013+HDRIP+XVID+AC3+ACAB","amp;tr":["udp%3A%2F%2Ftracker.openbittorrent.com%3A80","udp%3A%2F%2Fopen.demonii.com%3A1337","udp%3A%2F%2Ftracker.coppersurfer.tk%3A6969","udp%3A%2F%2Fexodus.desync.com%3A6969"],"infoHash":"730a4511998bbcc68409c2e62626766da2563db9","infoHashBuffer":{"type":"Buffer","data":[115,10,69,17,153,139,188,198,132,9,194,230,38,38,118,109,162,86,61,185]},"announce":[],"urlList":[]}}